Coordinates
version=1
nRows=13
nColumns=36
inDegrees=yes

Units are S.I. units (second, meters, Newtons, ...)
If the header above contains a line with 'inDegrees', this indicates whether rotational values are in degrees (yes) or radians (no).

endheader
time	pelvis_tilt	pelvis_list	pelvis_rotation	pelvis_tx	pelvis_ty	pelvis_tz	hip_flexion_r	hip_adduction_r	hip_rotation_r	knee_angle_r	knee_angle_r_beta	ankle_angle_r	subtalar_angle_r	mtp_angle_r	hip_flexion_l	hip_adduction_l	hip_rotation_l	knee_angle_l	knee_angle_l_beta	ankle_angle_l	subtalar_angle_l	mtp_angle_l	lumbar_extension	lumbar_bending	lumbar_rotation	arm_flex_r	arm_add_r	arm_rot_r	elbow_flex_r	pro_sup_r	arm_flex_l	arm_add_l	arm_rot_l	elbow_flex_l	pro_sup_l
      1.24000000	    -14.70560218	      1.15185887	      1.67906266	     -0.37899787	      0.64319220	     -0.59396217	     79.54215339	     -4.58596706	      3.59657775	     92.40633405	      1.61279478	     26.63458716	    -10.33027137	     -7.48606833	     77.01473685	    -10.28221844	     -3.90252531	     93.06190179	      1.62423659	     28.97348597	      0.34056100	     -7.48606833	    -39.01605005	     -3.05884733	      3.62314519	     12.71763812	    -18.95207951	    -13.62557689	     74.52435679	    104.52984222	      3.26335247	    -20.06854920	    -12.65706997	     99.98763216	    100.04310853
      1.25000000	    -15.22072469	      1.07525984	      1.77846630	     -0.37677071	      0.63361473	     -0.59429737	     81.40897797	     -4.79732934	      3.65590299	     94.50956780	      1.64950313	     26.58993272	    -10.09510328	     -7.48625193	     78.90138190	    -10.04686961	     -3.23489860	     95.19468741	      1.66146073	     29.07901577	      0.02522765	     -7.48625193	    -40.51815074	     -3.05783648	      3.78250189	     19.34069365	    -19.53462758	    -10.78997159	     71.83695177	    104.45894825	      9.33387488	    -18.76337253	     -9.91771478	    100.30204724	    100.22252101
      1.26000000	    -15.44626159	      0.94818449	      1.80178458	     -0.37463309	      0.62510593	     -0.59444237	     82.75242692	     -4.88256451	      3.74137264	     96.32715229	      1.68122597	     27.12700494	     -9.43780728	     -7.48709256	     80.39030456	     -9.82962076	     -2.47210345	     97.22909672	      1.69696787	     29.15660834	     -0.39848781	     -7.48709256	    -42.17962309	     -2.91832599	      2.59215288	     26.88415183	    -19.50236310	     -5.71862859	     69.74372032	    104.66442763	     13.90379077	    -18.00673385	     -9.14609798	    102.32141157	    100.56371551
      1.27000000	    -15.50580163	      0.75535087	      1.77019393	     -0.37237141	      0.61750866	     -0.59416464	     83.66187164	     -4.79570151	      3.70971121	     97.89997619	      1.70867692	     27.53681692	     -9.49915646	     -7.48722765	     81.43469007	     -9.64898064	     -1.63148753	     98.89691146	      1.72607673	     29.56963450	     -0.69280762	     -7.48722765	    -43.77879415	     -2.81139026	      2.70955816	     32.49339060	    -19.37600490	     -3.43476576	     70.59033776	    104.94005056	     19.60009583	    -17.25143203	     -6.42620812	    104.16973590	    100.94653846
      1.28000000	    -15.57658004	      0.50347040	      1.76001767	     -0.36996414	      0.61085540	     -0.59378684	     84.25095639	     -4.66533747	      3.58689657	     99.11757397	      1.72992801	     28.48541356	     -9.29368591	     -7.48752238	     82.26543754	     -9.49883307	     -0.87330025	    100.32950745	      1.75108024	     30.24667457	     -0.98111285	     -7.48752238	    -45.15281019	     -2.60188271	      2.72974335	     37.78839630	    -19.35823553	     -0.43374296	     72.33324158	    105.52750720	     25.15823033	    -16.88787966	     -3.61989963	    106.03772430	    101.52530089
      1.29000000	    -15.93379976	      0.30679187	      1.77714834	     -0.36734904	      0.60471066	     -0.59347636	     85.05930079	     -4.65214032	      3.39566474	    100.22877996	      1.74932222	     29.15580511	     -9.30982033	     -7.48765265	     83.18495803	     -9.30353978	     -0.30485354	    101.49621213	      1.77144308	     30.90824876	     -1.40460711	     -7.48765265	    -46.12236703	     -2.45335809	      2.59162652	     42.59542465	    -18.67869271	      1.40281267	     74.55923524	    105.91297828	     30.18853497	    -17.07168270	     -0.59954673	    108.74948012	    102.12748435
      1.30000000	    -16.60170218	      0.15226453	      1.70451755	     -0.36466876	      0.59914951	     -0.59303718	     86.11470436	     -4.56040867	      3.27380617	    101.15652155	      1.76551436	     29.75136878	     -9.21865879	     -7.48776440	     84.28647331	     -9.24280205	      0.11004354	    102.48297638	      1.78866537	     31.47308586	     -1.76921097	     -7.48776440	    -46.56152527	     -2.37536495	      2.35734219	     47.05595261	    -17.71205700	      3.30896428	     76.92115781	    106.23955545	     34.91699319	    -17.76205081	      2.51770401	    111.31233032	    102.72031559
      1.31000000	    -17.40072884	     -0.04531635	      1.52240658	     -0.36203034	      0.59434239	     -0.59234974	     87.20798937	     -4.35220721	      3.06265852	    101.89682667	      1.77843512	     30.25237399	     -9.05120758	     -7.48786823	     85.46508611	     -9.40160243	      0.49765429	    103.34383260	      1.80369014	     31.83755891	     -1.98592856	     -7.48786823	    -46.62176001	     -2.29689242	      2.07780102	     51.29944758	    -16.26113369	      4.95003194	     79.17564511	    106.45838021	     39.43830435	    -18.88399743	      5.56113669	    113.63924119	    103.27489578
      1.32000000	    -18.07145678	     -0.23922068	      1.27446539	     -0.35938182	      0.59066508	     -0.59140487	     88.05754252	     -4.10120693	      2.80831675	    102.47302674	      1.78849171	     30.68157936	     -8.81809809	     -7.48799077	     86.44630191	     -9.78424537	      0.80364297	    104.10673570	      1.81700531	     32.03916300	     -2.02666271	     -7.48799077	    -46.57819520	     -2.20895423	      1.81782899	     55.31985845	    -14.45046739	      6.22197551	     81.27707674	    106.56388717	     43.95178248	    -20.16873239	      8.40849262	    115.74130365	    103.80415503
      1.33000000	    -18.56350752	     -0.36570186	      1.01338359	     -0.35660141	      0.58833683	     -0.59040003	     88.62643981	     -3.93044311	      2.54873787	    102.90966959	      1.79611257	     31.08400912	     -8.48190355	     -7.48817578	     87.06466162	    -10.23541281	      0.95023967	    104.66297303	      1.82671348	     32.22211471	     -1.93498256	     -7.48817578	    -46.55184376	     -2.20793422	      1.48909242	     59.06978581	    -12.45029086	      7.11403973	     83.39466520	    106.54749717	     48.67738845	    -21.52845251	     11.18945946	    117.56772055	    104.31226038
      1.34000000	    -18.92418071	     -0.46831664	      0.78833677	     -0.35357187	      0.58729102	     -0.58956806	     88.87812184	     -3.83352527	      2.32518072	    103.15737025	      1.80043576	     31.42132522	     -8.16362588	     -7.48833387	     87.36318421	    -10.64596534	      0.99875687	    105.04808529	      1.83343496	     32.42997519	     -1.90275087	     -7.48833387	    -46.48307810	     -2.17314463	      1.10625115	     62.55190387	    -10.43857683	      7.86677737	     85.71053264	    106.56851228	     53.42362302	    -23.04156375	     13.95410630	    119.15284634	    104.71703739
      1.35000000	    -19.11674028	     -0.36834169	      0.63417625	     -0.35030112	      0.58756629	     -0.58875720	     88.77909588	     -3.85165139	      2.32142029	    103.24559465	      1.80197556	     32.15297633	     -7.38998266	     -7.48882242	     87.17784532	    -10.96027875	      0.79789810	    105.13165227	      1.83489348	     32.84493246	     -1.73515727	     -7.48882242	    -46.41400797	     -2.39705757	      0.89101531	     65.58157879	     -9.13500195	      8.40084396	     88.72584756	    106.35998893	     58.68814452	    -24.37087661	     17.28404900	    119.91112173	    105.07097755
      1.36000000	    -19.22069265	     -0.50103341	      0.51163900	     -0.34686143	      0.58878031	     -0.58818217	     88.35191530	     -3.83987344	      2.05074514	    103.09873181	      1.79941232	     32.51899195	     -7.24453545	     -7.48893247	     86.87659288	    -11.23866722	      0.87506206	    105.12117420	      1.83471060	     33.11827962	     -1.75646359	     -7.48893247	    -46.30891667	     -2.27187484	      0.50710550	     68.77465791	     -7.91294966	      9.63165918	     91.66206828	    106.54385716	     63.48375978	    -26.11154550	     19.81606296	    121.14058081	    105.38036378
